<svg width="306.5" height="148.5" viewBox="0 0 306.5 148.5" fill="none" xmlns="http://www.w3.org/2000/svg" shape-rendering="geometricPrecision">
<path d="M67.5 4.25H46.375L87.25 104.5H111.375L67.5 4.25Z" fill="#3B82F6"/>
<path d="M67.5 4.25H46.375L87.25 104.5H88.875L67.5 4.25Z" fill="#3B82F6"/>
<path d="M67.5 4.25H46.375L87.25 104.5H88.875L67.5 4.25Z" fill="black" fill-opacity="0.2"/>
<path d="M43.875 4.25H67.5L26.625 104.5H0L43.875 4.25Z" fill="#3B82F6"/>
<path d="M32.375 65H71.125L78.875 83.5H32.375V65Z" fill="#3B82F6"/>
<rect x="234.375" y="4.5" width="22.5" height="99.75" fill="#3B82F6"/>
<rect x="306.375" y="85.5" width="18.75" height="72" transform="rotate(90 306.375 85.5)" fill="#3B82F6"/>
<rect x="256.875" y="85.5" width="5.5" height="18.75" fill="#3B82F6"/>
<rect x="256.875" y="85.5" width="5.5" height="18.75" fill="black" fill-opacity="0.2"/>
<path d="M42.73375 65H48.625L41 83.5H35.1905L42.73375 65Z" fill="#3B82F6"/>
<path d="M42.73375 65H48.625L41 83.5H35.1905L42.73375 65Z" fill="black" fill-opacity="0.2"/>
<path d="M219.125 54.375C219.125 84.4055 194.7805 108.75 164.75 108.75C134.7195 108.75 110.375 84.4055 110.375 54.375C110.375 24.34451 134.7195 0 164.75 0C194.7805 0 219.125 24.34451 219.125 54.375ZM127.5895 54.375C127.5895 74.89825 144.22675 91.5355 164.75 91.5355C185.27325 91.5355 201.9105 74.89825 201.9105 54.375C201.9105 33.85175 185.27325 17.214575 164.75 17.214575C144.22675 17.214575 127.5895 33.85175 127.5895 54.375Z" fill="#3B82F6"/>
<path d="M115.60475 77.26025C128.29625 104.47725 160.64825 116.2525 187.86525 103.561C169.265 112.2345 138.55275 89.2045 129.87925 70.604C121.20575 52.00375 123.30525 13.67345 141.9055 5C114.68875 17.691425 102.91325 50.04325 115.60475 77.26025Z" fill="#3B82F6"/>
<path d="M115.60475 77.26025C128.29625 104.47725 160.64825 116.2525 187.86525 103.561C169.265 112.2345 138.55275 89.2045 129.87925 70.604C121.20575 52.00375 123.30525 13.67345 141.9055 5C114.68875 17.691425 102.91325 50.04325 115.60475 77.26025Z" fill="black" fill-opacity="0.2"/>
<path d="M192.308 57.76275C194.1595 57.981 195.85625 56.655 195.87375 54.791C195.907 51.2 195.32125 47.6215 194.13375 44.2145C192.575 39.7425 190.02025 35.68325 186.6625 32.3435C183.30475 29.00375 179.23175 26.47075 174.7515 24.9362C171.33825 23.767 167.7565 23.20062 164.166 23.25337C162.302 23.28075 160.98525 24.98475 161.21325 26.83475C161.4415 28.685 163.13025 30.22525 164.99425 30.25325C167.56425 30.292 170.11925 30.785 172.564 31.7225C176.0765 33.02575 179.2695 35.0115 181.902 37.5297C184.5345 40.048 186.5375 43.0305 187.7595 46.3865C188.61 48.87675 189.06675 51.47925 189.11925 54.099C189.1575 55.96275 190.4567 57.54425 192.308 57.76275Z" fill="#3B82F6"/>
<path d="M205.5 90.125L242.625 128.25L232.25 138.125L194.25 99.875L205.5 90.125Z" fill="#3B82F6"/>
<rect x="196.875" y="109.42775" width="25" height="55" rx="12.29832" transform="rotate(-45 196.875 109.42775)" fill="#3B82F6"/>
</svg>
