<?xml version="1.0" encoding="utf-8"?>
<!-- Generator: Adobe Illustrator 14.0.0, SVG Export Plug-In  -->
<!DOCTYPE svg PUBLIC "-//W3C//DTD SVG 1.1//EN" "http://www.w3.org/Graphics/SVG/1.1/DTD/svg11.dtd" [
	<!ENTITY ns_flows "http://ns.adobe.com/Flows/1.0/">
]>
<svg version="1.1"
	 xmlns="http://www.w3.org/2000/svg" xmlns:xlink="http://www.w3.org/1999/xlink" xmlns:a="http://ns.adobe.com/AdobeSVGViewerExtensions/3.0/"
	 x="0px" y="0px" width="57px" height="55px" viewBox="342.075 89.616 57 55" enable-background="new 342.075 89.616 57 55"
	 xml:space="preserve">
<defs>
</defs>
<rect x="342.075" y="89.616" fill="#FFFFFF" width="5.67" height="5.818"/>
<rect x="384.595" y="89.616" fill="#FFFFFF" width="5.67" height="5.818"/>
<rect x="376.091" y="89.616" fill="#FFFFFF" width="5.67" height="5.818"/>
<rect x="367.587" y="89.616" fill="#FFFFFF" width="5.67" height="5.818"/>
<rect x="359.083" y="89.616" fill="#FFFFFF" width="5.67" height="5.818"/>
<rect x="350.579" y="89.616" fill="#FFFFFF" width="5.67" height="5.818"/>
<rect x="393.099" y="89.616" fill="#FFFFFF" width="5.67" height="5.818"/>
<rect x="342.075" y="99.507" fill="#FFFFFF" width="5.67" height="5.819"/>
<rect x="384.595" y="99.507" fill="#FFFFFF" width="5.67" height="5.819"/>
<rect x="376.091" y="99.507" fill="#FFFFFF" width="5.67" height="5.819"/>
<rect x="367.587" y="99.507" fill="#FFFFFF" width="5.67" height="5.819"/>
<rect x="359.083" y="99.507" fill="#FFFFFF" width="5.67" height="5.819"/>
<rect x="350.579" y="99.507" fill="#FFFFFF" width="5.67" height="5.819"/>
<rect x="393.099" y="99.507" fill="#FFFFFF" width="5.67" height="5.819"/>
<rect x="342.075" y="109.398" fill="#FFFFFF" width="5.67" height="5.819"/>
<rect x="384.595" y="109.398" fill="#FFFFFF" width="5.67" height="5.819"/>
<rect x="376.091" y="109.398" fill="#FFFFFF" width="5.67" height="5.819"/>
<rect x="367.587" y="109.398" fill="#FFFFFF" width="5.67" height="5.819"/>
<rect x="359.083" y="109.398" fill="#FFFFFF" width="5.67" height="5.819"/>
<rect x="350.579" y="109.398" fill="#FFFFFF" width="5.67" height="5.819"/>
<rect x="393.099" y="109.398" fill="#FFFFFF" width="5.67" height="5.819"/>
<rect x="342.075" y="119.289" fill="#FFFFFF" width="5.67" height="5.819"/>
<rect x="384.595" y="119.289" fill="#FFFFFF" width="5.67" height="5.819"/>
<rect x="376.091" y="119.289" fill="#FFFFFF" width="5.67" height="5.819"/>
<rect x="367.587" y="119.289" fill="#FFFFFF" width="5.67" height="5.819"/>
<rect x="359.083" y="119.289" fill="#FFFFFF" width="5.67" height="5.819"/>
<rect x="350.579" y="119.289" fill="#FFFFFF" width="5.67" height="5.819"/>
<rect x="393.099" y="119.289" fill="#FFFFFF" width="5.67" height="5.819"/>
<rect x="342.075" y="129.181" fill="#FFFFFF" width="5.67" height="5.819"/>
<rect x="384.595" y="129.181" fill="#FFFFFF" width="5.67" height="5.819"/>
<rect x="376.091" y="129.181" fill="#FFFFFF" width="5.67" height="5.819"/>
<rect x="367.587" y="129.181" fill="#FFFFFF" width="5.67" height="5.819"/>
<rect x="359.083" y="129.181" fill="#FFFFFF" width="5.67" height="5.819"/>
<rect x="350.579" y="129.181" fill="#FFFFFF" width="5.67" height="5.819"/>
<rect x="393.099" y="129.181" fill="#FFFFFF" width="5.67" height="5.819"/>
<rect x="342.075" y="139.072" fill="#FFFFFF" width="5.67" height="5.818"/>
<rect x="384.595" y="139.072" fill="#FFFFFF" width="5.67" height="5.818"/>
<rect x="376.091" y="139.072" fill="#FFFFFF" width="5.67" height="5.818"/>
<rect x="367.587" y="139.072" fill="#FFFFFF" width="5.67" height="5.818"/>
<rect x="359.083" y="139.072" fill="#FFFFFF" width="5.67" height="5.818"/>
<rect x="350.579" y="139.072" fill="#FFFFFF" width="5.67" height="5.818"/>
<rect x="393.099" y="139.072" fill="#FFFFFF" width="5.67" height="5.818"/>
</svg>
