<svg width="552" height="573" viewBox="0 0 552 573" fill="none" xmlns="http://www.w3.org/2000/svg">
<path d="M435 217.5C435 337.622 337.622 435 217.5 435C97.3781 435 0 337.622 0 217.5C0 97.3781 97.3781 0 217.5 0C337.622 0 435 97.3781 435 217.5ZM68.8583 217.5C68.8583 299.593 135.407 366.142 217.5 366.142C299.593 366.142 366.142 299.593 366.142 217.5C366.142 135.407 299.593 68.8583 217.5 68.8583C135.407 68.8583 68.8583 135.407 68.8583 217.5Z" fill="#3B82F6"/>
<path d="M20.9195 309.041C71.6852 417.909 201.093 465.01 309.961 414.244C235.56 448.938 112.711 356.818 78.0169 282.416C43.3231 208.015 51.7208 54.6938 126.122 20C17.2545 70.7657 -29.8463 200.174 20.9195 309.041Z" fill="#3B82F6"/>
<path d="M20.9195 309.041C71.6852 417.909 201.093 465.01 309.961 414.244C235.56 448.938 112.711 356.818 78.0169 282.416C43.3231 208.015 51.7208 54.6938 126.122 20C17.2545 70.7657 -29.8463 200.174 20.9195 309.041Z" fill="black" fill-opacity="0.2"/>
<path d="M327.732 231.051C335.138 231.924 341.925 226.62 341.995 219.164C342.128 204.8 339.785 190.486 335.035 176.858C328.8 158.97 318.581 142.733 305.15 129.374C291.719 116.015 275.427 105.883 257.506 99.7448C243.853 95.0684 229.526 92.8025 215.164 93.0135C207.708 93.123 202.441 99.939 203.353 107.339C204.266 114.74 211.021 119.901 218.477 120.013C228.757 120.168 238.977 121.94 248.756 125.29C262.806 130.103 275.578 138.046 286.108 148.519C296.638 158.992 304.65 171.722 309.538 185.746C312.94 195.507 314.767 205.717 314.977 215.996C315.13 223.451 320.327 230.178 327.732 231.051Z" fill="#3B82F6"/>
<path d="M380.5 360.5L529 513L487.5 552.5L335.5 399.5L380.5 360.5Z" fill="#3B82F6"/>
<path d="M380.785 472.496C361.574 453.284 361.574 422.137 380.785 402.926L381.926 401.785C401.137 382.574 432.284 382.574 451.496 401.785L537.489 487.779C556.7 506.99 556.7 538.137 537.489 557.348L536.348 558.489C517.137 577.7 485.99 577.7 466.779 558.489L380.785 472.496Z" fill="#3B82F6"/>
</svg>
